<?xml version="1.0" encoding="utf-8"?>
<!-- Generator: Adobe Illustrator 27.0.0, SVG Export Plug-In . SVG Version: 6.00 Build 0)  -->
<svg version="1.1" id="Layer_1" xmlns="http://www.w3.org/2000/svg" xmlns:xlink="http://www.w3.org/1999/xlink" x="0px" y="0px"
	 viewBox="0 0 329.7 65.2" style="enable-background:new 0 0 329.7 65.2;" xml:space="preserve">
<style type="text/css">
	.st0{enable-background:new    ;}
	.st1{fill:#FFFFFF;}
	.st2{fill:#C69710;}
</style>
<g>
	<g class="st0">
		<path class="st1" d="M44.9,12.7h10.4v32.6c0,4.3-0.4,7.5-1.1,9.8c-1,3-2.8,5.4-5.5,7.2c-2.6,1.8-6.1,2.7-10.5,2.7
			c-5.1,0-9-1.4-11.7-4.3s-4.1-7-4.1-12.5l9.8-1.1c0.1,3,0.6,5,1.3,6.3c1.1,1.9,2.8,2.8,5.1,2.8c2.3,0,4-0.7,4.9-2
			c1-1.3,1.4-4.1,1.4-8.2V12.7z"/>
		<path class="st1" d="M66.4,64.2V12.7h38.2v8.7H76.8v11.4h25.9v8.7H76.8v14h28.8v8.7H66.4z"/>
		<path class="st1" d="M114.5,64.2V12.7h10.1l21.1,34.4V12.7h9.7v51.5H145l-20.8-33.6v33.6H114.5z"/>
		<path class="st1" d="M166.6,64.2V12.7H177v22.9l21-22.9h14l-19.4,20.1L213,64.2h-13.5l-14.2-24.2l-8.4,8.6v15.6H166.6z"/>
		<path class="st1" d="M218.1,64.2V12.7h10.4v51.5H218.1z"/>
		<path class="st1" d="M238.5,64.2V12.7h10.1l21.1,34.4V12.7h9.7v51.5H269l-20.8-33.6v33.6H238.5z"/>
		<path class="st1" d="M287.8,47.5l10.1-1c0.6,3.4,1.8,5.9,3.7,7.5s4.4,2.4,7.5,2.4c3.4,0,5.9-0.7,7.6-2.1c1.7-1.4,2.5-3.1,2.5-5
			c0-1.2-0.4-2.3-1.1-3.1c-0.7-0.9-2-1.6-3.7-2.2c-1.2-0.4-4-1.2-8.3-2.2c-5.6-1.4-9.5-3.1-11.7-5.1c-3.2-2.8-4.7-6.3-4.7-10.4
			c0-2.6,0.7-5.1,2.2-7.4c1.5-2.3,3.6-4,6.4-5.2c2.8-1.2,6.2-1.8,10.1-1.8c6.5,0,11.3,1.4,14.6,4.3s5,6.6,5.2,11.4l-10.4,0.5
			c-0.4-2.6-1.4-4.6-2.9-5.7c-1.5-1.2-3.7-1.7-6.6-1.7c-3,0-5.4,0.6-7.1,1.9c-1.1,0.8-1.7,1.9-1.7,3.2c0,1.2,0.5,2.3,1.5,3.1
			c1.3,1.1,4.5,2.2,9.6,3.4s8.8,2.4,11.2,3.7s4.3,3,5.7,5.2s2.1,5,2.1,8.2c0,3-0.8,5.7-2.5,8.3c-1.6,2.6-4,4.5-7,5.7
			c-3,1.3-6.7,1.9-11.2,1.9c-6.5,0-11.5-1.5-15-4.5C290.5,57.6,288.5,53.2,287.8,47.5z"/>
	</g>
	<polygon class="st2" points="18.4,0 24,11.5 36.7,13.4 27.6,22.3 29.7,34.9 18.4,29 7,34.9 9.2,22.3 0,13.4 12.7,11.5 	"/>
</g>
</svg>
